# xmcd
#
# Track frame offsets: 
#        175
#        20125
#        40675
#        57690
#        83262
#        108572
#
# Disc length: 1821 seconds
#
# Revision: 1
# Processed by: cddbd v1.5.1PL0 Copyright (c) Steve Scherf et al.
# Submitted via: ExactAudioCopy v0.90b4
#
DISCID=46071b06
DTITLE=Tear Da Club Up Thugs - CrazyNDaLazDayz (Bonus CD)
DYEAR=1999
DGENRE=Rap
TTITLE0=Mind State (feat. Three 6 Mafia)
TTITLE1=Put Your Guns Up (feat. T-Rock)
TTITLE2=Tear Da Club Up '97 [Album Version]
TTITLE3=DJ Herb's Get Crunk and Tear It Up Mix [Clean Version]
TTITLE4=Where Dem Dollas At [Street Bounce]
TTITLE5=DJ Herb's Ride Out Late Nite Remix
EXTD=
EXTT0=
EXTT1=
EXTT2=
EXTT3=
EXTT4=
EXTT5=
PLAYORDER=
